<svg id="Layer_1" data-name="Layer 1" xmlns="http://www.w3.org/2000/svg" viewBox="0 0 517.52 86.39"><defs><style>.cls-1{fill:#082603;}.cls-2{fill:#4a6d21;}</style></defs><title>shoelab</title><path class="cls-1" d="M20.19,162l14.54-17.32a45.21,45.21,0,0,0,28.48,9.53q7,0,7-3.48v-.24q0-3.13-11.28-5.35-16.39-3.24-23.95-8-10.35-6.51-10.35-18.14v-.23q0-12.09,8.84-19.53Q43,91.28,59.14,91.27q22.68,0,36.75,11.16L82.63,120.8a40.35,40.35,0,0,0-24.42-8c-4,0-5.93,1.13-5.93,3.37v.24q0,3.14,10.82,5.23,17.43,3.13,25.23,8.37a20.37,20.37,0,0,1,9.53,17.91v.23q0,12.68-9.76,20.23-9.54,7.32-26.17,7.32Q35.77,175.68,20.19,162Z" transform="translate(-20.19 -89.29)"/><path class="cls-1" d="M103.44,89.29h0a26.4,26.4,0,0,1,26.4,26.4v3.49q7.91-10,19.41-10,10,0,15.93,6.16,5.82,6.39,5.82,17v41.86H144.6V140.8a9.51,9.51,0,0,0-2.09-6.39,6.8,6.8,0,0,0-5.12-2.21,6.93,6.93,0,0,0-5.23,2.21,9.12,9.12,0,0,0-2.32,6.39v33.37h-26.4Z" transform="translate(-20.19 -89.29)"/><path class="cls-1" d="M186.46,165.92a31.16,31.16,0,0,1-10-23.26v-.23a30.87,30.87,0,0,1,10.12-23.37q10.23-9.89,25.69-9.88t25.58,9.76a31.16,31.16,0,0,1,10,23.26v.23a31.26,31.26,0,0,1-10,23.37q-10.23,9.88-25.81,9.88Q196.8,175.68,186.46,165.92Zm33.14-15.47a10.79,10.79,0,0,0,2.9-7.79v-.23a11.59,11.59,0,0,0-3-8,9.54,9.54,0,0,0-7.44-3.26,9.41,9.41,0,0,0-7.33,3.26,10.79,10.79,0,0,0-2.9,7.79v.23a11.57,11.57,0,0,0,3,8,9.54,9.54,0,0,0,7.44,3.26A9.41,9.41,0,0,0,219.6,150.45Z" transform="translate(-20.19 -89.29)"/><path class="cls-1" d="M261.45,166.62q-9.64-9.08-9.65-23.84v-.23q0-14.31,9.19-23.84t23.49-9.53q16.15,0,25,10.23,8,9.42,8,24.76v2.62a10.89,10.89,0,0,1-.12,1.8H276.57q2.79,8.49,12,8.49,6.61,0,12.9-6.51l14.19,11.28q-10.71,13.83-28.95,13.83Q271.11,175.68,261.45,166.62Zm32-29.65q-.81-9.54-8.84-9.54-7.2,0-8.37,9.54Z" transform="translate(-20.19 -89.29)"/><path class="cls-2" d="M324,92.78h0A27.21,27.21,0,0,1,351.22,120v30.93h38.25v23.25H324Z" transform="translate(-20.19 -89.29)"/><path class="cls-2" d="M398.07,170.57q-5.81-5.23-5.81-14.42v-.23q0-9.42,6.51-14.65t17.67-5.12q9.3,0,15,2.33v-1q0-9.18-11.74-9.18a46.86,46.86,0,0,0-17.56,3.6l-4.65-17.56a74,74,0,0,1,26.74-4.65q18.61,0,26.86,8.26,6.63,6.63,6.63,20.11v36.16H431.33v-6.39a23.87,23.87,0,0,1-18.26,7.9Q403.77,175.68,398.07,170.57Zm31.28-12.79a10.43,10.43,0,0,0,2.33-7.09V148a15.89,15.89,0,0,0-6.05-1q-8.14,0-8.14,7.1v.23a5.74,5.74,0,0,0,1.75,4.42,5.84,5.84,0,0,0,4.3,1.74A7.39,7.39,0,0,0,429.35,157.78Z" transform="translate(-20.19 -89.29)"/><path class="cls-2" d="M491.56,167v7.21h-26.4V89.29h0a26.4,26.4,0,0,1,26.4,26.4v2.79q8.6-9.3,18.83-9.3a24.56,24.56,0,0,1,19.42,9.07q7.91,9.3,7.91,23.72v.23q0,14.64-7.91,24.3-7.68,9.18-19.19,9.18Q499.46,175.68,491.56,167Zm17.55-16.27a11.75,11.75,0,0,0,3-8.14v-.24a11.77,11.77,0,0,0-3-8.14,10.41,10.41,0,0,0-15.11,0,11.77,11.77,0,0,0-3,8.14v.24a11.65,11.65,0,0,0,3.16,8.17,10.07,10.07,0,0,0,7.43,3.22A9.64,9.64,0,0,0,509.11,150.69Z" transform="translate(-20.19 -89.29)"/></svg>